<svg width="66" height="66" viewBox="0 0 66 66" fill="none" xmlns="http://www.w3.org/2000/svg">
<path d="M32.3496 16.1987C35.8846 12.4439 38.677 11.4584 41.2443 11.3256C45.5169 11.1038 46.6854 13.397 46.4815 16.5409C46.2786 19.6847 43.2027 23.8673 43.2027 23.8673" fill="#0087B7"/>
<path d="M62.2814 25.1639C61.7751 24.531 60.9914 24.3269 60.3103 24.6628L55.613 26.979L54.2531 27.6495C51.5631 28.9698 51.4519 27.2447 49.9939 24.9878C46.3017 18.3154 38.8228 14.3743 28.9728 13.1077C9.15811 10.5592 4.02441 22.4166 4.02441 33.8986C4.02441 45.3804 15.1945 54.6895 28.9729 54.6895C38.9001 54.6895 45.9033 49.8572 49.9207 42.8623C51.2923 40.7877 51.49 39.1211 53.4935 39.773L55.3587 40.6926L60.3104 43.1343C60.9914 43.4702 61.7751 43.2662 62.2815 42.6333C64.107 40.3524 65.2264 37.2799 65.2264 33.8986C65.2264 30.5172 64.107 27.4446 62.2814 25.1639Z" fill="#01C9D8"/>
<path d="M14.3869 25.0413C15.6255 25.0413 16.632 26.0456 16.632 27.2885V30.0473C16.632 31.2881 15.6255 32.2946 14.3869 32.2946C13.146 32.2946 12.1396 31.2881 12.1396 30.0473V27.2885C12.1396 26.0457 13.1461 25.0413 14.3869 25.0413Z" fill="#2C3C47"/>
<path d="M4.05762 35.189C4.58278 46.0703 11.8631 54.6889 28.9735 54.6889C47.3812 54.6889 51.8965 38.9511 53.4941 39.7724C53.4941 39.7724 53.7358 39.5505 52.608 39.6333C46.6029 40.0746 25.0912 41.2777 4.05762 35.189Z" fill="#78DFE9"/>
<path d="M18.7515 41.0725C18.0463 40.1006 17.9051 38.7248 18.3937 37.5835L18.8058 36.6211C19.2944 35.4786 20.3166 34.7944 21.3993 34.8843L25.0359 35.1867C26.4127 35.3008 27.5017 36.6231 27.5383 38.2489C27.5665 39.5043 27.3395 40.7859 26.8258 41.9869C26.3122 43.1869 25.5725 44.164 24.699 44.8838C23.568 45.8161 22.0176 45.5722 21.1199 44.3356L18.7515 41.0725ZM53.4935 39.7722L55.3587 40.6918L60.3104 43.1336C60.9914 43.4695 61.7749 43.2654 62.2814 42.6324C64.107 40.3528 65.2265 37.2801 65.2265 33.8978C65.2265 30.5166 64.107 27.4439 62.2814 25.1643C61.775 24.5314 60.9916 24.3273 60.3104 24.6631L55.6141 26.9793L53.4275 28.0568" fill="#0087B7"/>
<path d="M3.27577 30.1545C1.89273 30.1547 0.773438 31.2754 0.773438 32.6574C0.773438 33.5098 1.20012 34.2618 1.85109 34.7136C1.20012 35.1655 0.773438 35.9173 0.773438 36.7698C0.773438 38.1518 1.89273 39.2722 3.27577 39.2722C5.79395 39.2722 7.83492 37.231 7.83492 34.7138C7.83492 32.1958 5.79395 30.1545 3.27577 30.1545Z" fill="#FF9E9E"/>
<path d="M3.48671 35.4065C2.733 35.4065 2.03342 35.2072 1.63665 34.9258C1.55842 34.8689 1.5058 34.7834 1.49018 34.6879C1.47456 34.5924 1.4972 34.4946 1.5532 34.4157C1.6092 34.3368 1.69404 34.2831 1.78934 34.2663C1.88464 34.2495 1.98271 34.271 2.0623 34.326C2.60332 34.7098 4.04732 34.8848 4.99092 34.2734C5.07272 34.2237 5.17067 34.2079 5.26398 34.2292C5.35728 34.2506 5.43859 34.3075 5.49064 34.3878C5.5427 34.4681 5.5614 34.5656 5.54278 34.6594C5.52416 34.7533 5.46968 34.8363 5.39091 34.8906C4.82153 35.2593 4.13408 35.4065 3.48671 35.4065Z" fill="#E7655F"/>
</svg>
